solid engrenagem_reposicao_fm
  facet normal 0 0 0
    outer loop
      vertex 0.000 0.000 0.000
      vertex 50.000 0.000 0.000
      vertex 50.000 50.000 0.000
    endloop
  endfacet
  facet normal 0 0 0
    outer loop
      vertex 0.000 0.000 0.000
      vertex 50.000 50.000 0.000
      vertex 0.000 50.000 0.000
    endloop
  endfacet
  facet normal 0 0 0
    outer loop
      vertex 0.000 0.000 20.000
      vertex 50.000 50.000 20.000
      vertex 50.000 0.000 20.000
    endloop
  endfacet
  facet normal 0 0 0
    outer loop
      vertex 0.000 0.000 20.000
      vertex 0.000 50.000 20.000
      vertex 50.000 50.000 20.000
    endloop
  endfacet
  facet normal 0 0 0
    outer loop
      vertex 0.000 0.000 0.000
      vertex 50.000 0.000 20.000
      vertex 50.000 0.000 0.000
    endloop
  endfacet
  facet normal 0 0 0
    outer loop
      vertex 0.000 0.000 0.000
      vertex 0.000 0.000 20.000
      vertex 50.000 0.000 20.000
    endloop
  endfacet
  facet normal 0 0 0
    outer loop
      vertex 0.000 50.000 0.000
      vertex 50.000 50.000 0.000
      vertex 50.000 50.000 20.000
    endloop
  endfacet
  facet normal 0 0 0
    outer loop
      vertex 0.000 50.000 0.000
      vertex 50.000 50.000 20.000
      vertex 0.000 50.000 20.000
    endloop
  endfacet
  facet normal 0 0 0
    outer loop
      vertex 0.000 0.000 0.000
      vertex 0.000 50.000 0.000
      vertex 0.000 50.000 20.000
    endloop
  endfacet
  facet normal 0 0 0
    outer loop
      vertex 0.000 0.000 0.000
      vertex 0.000 50.000 20.000
      vertex 0.000 0.000 20.000
    endloop
  endfacet
  facet normal 0 0 0
    outer loop
      vertex 50.000 0.000 0.000
      vertex 50.000 0.000 20.000
      vertex 50.000 50.000 20.000
    endloop
  endfacet
  facet normal 0 0 0
    outer loop
      vertex 50.000 0.000 0.000
      vertex 50.000 50.000 20.000
      vertex 50.000 50.000 0.000
    endloop
  endfacet
endsolid engrenagem_reposicao_fm
