solid gancho_parede_fm
  facet normal 0 0 0
    outer loop
      vertex 0.000 0.000 0.000
      vertex 80.000 0.000 0.000
      vertex 80.000 40.000 0.000
    endloop
  endfacet
  facet normal 0 0 0
    outer loop
      vertex 0.000 0.000 0.000
      vertex 80.000 40.000 0.000
      vertex 0.000 40.000 0.000
    endloop
  endfacet
  facet normal 0 0 0
    outer loop
      vertex 0.000 0.000 60.000
      vertex 80.000 40.000 60.000
      vertex 80.000 0.000 60.000
    endloop
  endfacet
  facet normal 0 0 0
    outer loop
      vertex 0.000 0.000 60.000
      vertex 0.000 40.000 60.000
      vertex 80.000 40.000 60.000
    endloop
  endfacet
  facet normal 0 0 0
    outer loop
      vertex 0.000 0.000 0.000
      vertex 80.000 0.000 60.000
      vertex 80.000 0.000 0.000
    endloop
  endfacet
  facet normal 0 0 0
    outer loop
      vertex 0.000 0.000 0.000
      vertex 0.000 0.000 60.000
      vertex 80.000 0.000 60.000
    endloop
  endfacet
  facet normal 0 0 0
    outer loop
      vertex 0.000 40.000 0.000
      vertex 80.000 40.000 0.000
      vertex 80.000 40.000 60.000
    endloop
  endfacet
  facet normal 0 0 0
    outer loop
      vertex 0.000 40.000 0.000
      vertex 80.000 40.000 60.000
      vertex 0.000 40.000 60.000
    endloop
  endfacet
  facet normal 0 0 0
    outer loop
      vertex 0.000 0.000 0.000
      vertex 0.000 40.000 0.000
      vertex 0.000 40.000 60.000
    endloop
  endfacet
  facet normal 0 0 0
    outer loop
      vertex 0.000 0.000 0.000
      vertex 0.000 40.000 60.000
      vertex 0.000 0.000 60.000
    endloop
  endfacet
  facet normal 0 0 0
    outer loop
      vertex 80.000 0.000 0.000
      vertex 80.000 0.000 60.000
      vertex 80.000 40.000 60.000
    endloop
  endfacet
  facet normal 0 0 0
    outer loop
      vertex 80.000 0.000 0.000
      vertex 80.000 40.000 60.000
      vertex 80.000 40.000 0.000
    endloop
  endfacet
endsolid gancho_parede_fm
