solid organizador_gaveta_fm
  facet normal 0 0 0
    outer loop
      vertex 0.000 0.000 0.000
      vertex 120.000 0.000 0.000
      vertex 120.000 80.000 0.000
    endloop
  endfacet
  facet normal 0 0 0
    outer loop
      vertex 0.000 0.000 0.000
      vertex 120.000 80.000 0.000
      vertex 0.000 80.000 0.000
    endloop
  endfacet
  facet normal 0 0 0
    outer loop
      vertex 0.000 0.000 45.000
      vertex 120.000 80.000 45.000
      vertex 120.000 0.000 45.000
    endloop
  endfacet
  facet normal 0 0 0
    outer loop
      vertex 0.000 0.000 45.000
      vertex 0.000 80.000 45.000
      vertex 120.000 80.000 45.000
    endloop
  endfacet
  facet normal 0 0 0
    outer loop
      vertex 0.000 0.000 0.000
      vertex 120.000 0.000 45.000
      vertex 120.000 0.000 0.000
    endloop
  endfacet
  facet normal 0 0 0
    outer loop
      vertex 0.000 0.000 0.000
      vertex 0.000 0.000 45.000
      vertex 120.000 0.000 45.000
    endloop
  endfacet
  facet normal 0 0 0
    outer loop
      vertex 0.000 80.000 0.000
      vertex 120.000 80.000 0.000
      vertex 120.000 80.000 45.000
    endloop
  endfacet
  facet normal 0 0 0
    outer loop
      vertex 0.000 80.000 0.000
      vertex 120.000 80.000 45.000
      vertex 0.000 80.000 45.000
    endloop
  endfacet
  facet normal 0 0 0
    outer loop
      vertex 0.000 0.000 0.000
      vertex 0.000 80.000 0.000
      vertex 0.000 80.000 45.000
    endloop
  endfacet
  facet normal 0 0 0
    outer loop
      vertex 0.000 0.000 0.000
      vertex 0.000 80.000 45.000
      vertex 0.000 0.000 45.000
    endloop
  endfacet
  facet normal 0 0 0
    outer loop
      vertex 120.000 0.000 0.000
      vertex 120.000 0.000 45.000
      vertex 120.000 80.000 45.000
    endloop
  endfacet
  facet normal 0 0 0
    outer loop
      vertex 120.000 0.000 0.000
      vertex 120.000 80.000 45.000
      vertex 120.000 80.000 0.000
    endloop
  endfacet
endsolid organizador_gaveta_fm
