solid presilha_cabos_fm
  facet normal 0 0 0
    outer loop
      vertex 0.000 0.000 0.000
      vertex 25.000 0.000 0.000
      vertex 25.000 15.000 0.000
    endloop
  endfacet
  facet normal 0 0 0
    outer loop
      vertex 0.000 0.000 0.000
      vertex 25.000 15.000 0.000
      vertex 0.000 15.000 0.000
    endloop
  endfacet
  facet normal 0 0 0
    outer loop
      vertex 0.000 0.000 20.000
      vertex 25.000 15.000 20.000
      vertex 25.000 0.000 20.000
    endloop
  endfacet
  facet normal 0 0 0
    outer loop
      vertex 0.000 0.000 20.000
      vertex 0.000 15.000 20.000
      vertex 25.000 15.000 20.000
    endloop
  endfacet
  facet normal 0 0 0
    outer loop
      vertex 0.000 0.000 0.000
      vertex 25.000 0.000 20.000
      vertex 25.000 0.000 0.000
    endloop
  endfacet
  facet normal 0 0 0
    outer loop
      vertex 0.000 0.000 0.000
      vertex 0.000 0.000 20.000
      vertex 25.000 0.000 20.000
    endloop
  endfacet
  facet normal 0 0 0
    outer loop
      vertex 0.000 15.000 0.000
      vertex 25.000 15.000 0.000
      vertex 25.000 15.000 20.000
    endloop
  endfacet
  facet normal 0 0 0
    outer loop
      vertex 0.000 15.000 0.000
      vertex 25.000 15.000 20.000
      vertex 0.000 15.000 20.000
    endloop
  endfacet
  facet normal 0 0 0
    outer loop
      vertex 0.000 0.000 0.000
      vertex 0.000 15.000 0.000
      vertex 0.000 15.000 20.000
    endloop
  endfacet
  facet normal 0 0 0
    outer loop
      vertex 0.000 0.000 0.000
      vertex 0.000 15.000 20.000
      vertex 0.000 0.000 20.000
    endloop
  endfacet
  facet normal 0 0 0
    outer loop
      vertex 25.000 0.000 0.000
      vertex 25.000 0.000 20.000
      vertex 25.000 15.000 20.000
    endloop
  endfacet
  facet normal 0 0 0
    outer loop
      vertex 25.000 0.000 0.000
      vertex 25.000 15.000 20.000
      vertex 25.000 15.000 0.000
    endloop
  endfacet
endsolid presilha_cabos_fm
