solid suporte_celular_fm
  facet normal 0 0 0
    outer loop
      vertex 0.000 0.000 0.000
      vertex 90.000 0.000 0.000
      vertex 90.000 70.000 0.000
    endloop
  endfacet
  facet normal 0 0 0
    outer loop
      vertex 0.000 0.000 0.000
      vertex 90.000 70.000 0.000
      vertex 0.000 70.000 0.000
    endloop
  endfacet
  facet normal 0 0 0
    outer loop
      vertex 0.000 0.000 85.000
      vertex 90.000 70.000 85.000
      vertex 90.000 0.000 85.000
    endloop
  endfacet
  facet normal 0 0 0
    outer loop
      vertex 0.000 0.000 85.000
      vertex 0.000 70.000 85.000
      vertex 90.000 70.000 85.000
    endloop
  endfacet
  facet normal 0 0 0
    outer loop
      vertex 0.000 0.000 0.000
      vertex 90.000 0.000 85.000
      vertex 90.000 0.000 0.000
    endloop
  endfacet
  facet normal 0 0 0
    outer loop
      vertex 0.000 0.000 0.000
      vertex 0.000 0.000 85.000
      vertex 90.000 0.000 85.000
    endloop
  endfacet
  facet normal 0 0 0
    outer loop
      vertex 0.000 70.000 0.000
      vertex 90.000 70.000 0.000
      vertex 90.000 70.000 85.000
    endloop
  endfacet
  facet normal 0 0 0
    outer loop
      vertex 0.000 70.000 0.000
      vertex 90.000 70.000 85.000
      vertex 0.000 70.000 85.000
    endloop
  endfacet
  facet normal 0 0 0
    outer loop
      vertex 0.000 0.000 0.000
      vertex 0.000 70.000 0.000
      vertex 0.000 70.000 85.000
    endloop
  endfacet
  facet normal 0 0 0
    outer loop
      vertex 0.000 0.000 0.000
      vertex 0.000 70.000 85.000
      vertex 0.000 0.000 85.000
    endloop
  endfacet
  facet normal 0 0 0
    outer loop
      vertex 90.000 0.000 0.000
      vertex 90.000 0.000 85.000
      vertex 90.000 70.000 85.000
    endloop
  endfacet
  facet normal 0 0 0
    outer loop
      vertex 90.000 0.000 0.000
      vertex 90.000 70.000 85.000
      vertex 90.000 70.000 0.000
    endloop
  endfacet
endsolid suporte_celular_fm
