solid vaso_geometrico_fm
  facet normal 0 0 0
    outer loop
      vertex 0.000 0.000 0.000
      vertex 100.000 0.000 0.000
      vertex 100.000 100.000 0.000
    endloop
  endfacet
  facet normal 0 0 0
    outer loop
      vertex 0.000 0.000 0.000
      vertex 100.000 100.000 0.000
      vertex 0.000 100.000 0.000
    endloop
  endfacet
  facet normal 0 0 0
    outer loop
      vertex 0.000 0.000 120.000
      vertex 100.000 100.000 120.000
      vertex 100.000 0.000 120.000
    endloop
  endfacet
  facet normal 0 0 0
    outer loop
      vertex 0.000 0.000 120.000
      vertex 0.000 100.000 120.000
      vertex 100.000 100.000 120.000
    endloop
  endfacet
  facet normal 0 0 0
    outer loop
      vertex 0.000 0.000 0.000
      vertex 100.000 0.000 120.000
      vertex 100.000 0.000 0.000
    endloop
  endfacet
  facet normal 0 0 0
    outer loop
      vertex 0.000 0.000 0.000
      vertex 0.000 0.000 120.000
      vertex 100.000 0.000 120.000
    endloop
  endfacet
  facet normal 0 0 0
    outer loop
      vertex 0.000 100.000 0.000
      vertex 100.000 100.000 0.000
      vertex 100.000 100.000 120.000
    endloop
  endfacet
  facet normal 0 0 0
    outer loop
      vertex 0.000 100.000 0.000
      vertex 100.000 100.000 120.000
      vertex 0.000 100.000 120.000
    endloop
  endfacet
  facet normal 0 0 0
    outer loop
      vertex 0.000 0.000 0.000
      vertex 0.000 100.000 0.000
      vertex 0.000 100.000 120.000
    endloop
  endfacet
  facet normal 0 0 0
    outer loop
      vertex 0.000 0.000 0.000
      vertex 0.000 100.000 120.000
      vertex 0.000 0.000 120.000
    endloop
  endfacet
  facet normal 0 0 0
    outer loop
      vertex 100.000 0.000 0.000
      vertex 100.000 0.000 120.000
      vertex 100.000 100.000 120.000
    endloop
  endfacet
  facet normal 0 0 0
    outer loop
      vertex 100.000 0.000 0.000
      vertex 100.000 100.000 120.000
      vertex 100.000 100.000 0.000
    endloop
  endfacet
endsolid vaso_geometrico_fm
